<svg width="62" height="19" viewBox="0 0 62 19" fill="none" xmlns="http://www.w3.org/2000/svg">
<path d="M7.94 13.42H7.88C7.64 13.9 7.25333 14.3267 6.72 14.7C6.18667 15.06 5.5 15.24 4.66 15.24C3.35333 15.24 2.33333 14.7867 1.6 13.88C0.866667 12.9733 0.5 11.6267 0.5 9.84C0.5 8.05333 0.866667 6.70667 1.6 5.8C2.33333 4.89333 3.35333 4.44 4.66 4.44C5.5 4.44 6.18667 4.62667 6.72 5C7.25333 5.36 7.64 5.78 7.88 6.26H7.94V4.68H8.64V19H7.94V13.42ZM4.82 14.62C5.23333 14.62 5.62667 14.56 6 14.44C6.37333 14.32 6.7 14.1467 6.98 13.92C7.27333 13.6933 7.50667 13.42 7.68 13.1C7.85333 12.78 7.94 12.4267 7.94 12.04V7.64C7.94 7.25333 7.85333 6.9 7.68 6.58C7.50667 6.26 7.27333 5.98667 6.98 5.76C6.7 5.53333 6.37333 5.36 6 5.24C5.62667 5.12 5.23333 5.06 4.82 5.06C3.67333 5.06 2.79333 5.44 2.18 6.2C1.56667 6.94667 1.26 7.96667 1.26 9.26V10.42C1.26 11.7133 1.56667 12.74 2.18 13.5C2.79333 14.2467 3.67333 14.62 4.82 14.62ZM17.9922 15.24C17.1122 15.24 16.3455 15.08 15.6922 14.76C15.0522 14.4267 14.5189 13.9533 14.0922 13.34C13.6789 12.7267 13.3722 11.9733 13.1722 11.08C12.9722 10.1867 12.8722 9.16667 12.8722 8.02C12.8722 6.88667 12.9722 5.87333 13.1722 4.98C13.3722 4.07333 13.6789 3.31333 14.0922 2.7C14.5189 2.08667 15.0522 1.62 15.6922 1.3C16.3455 0.966666 17.1122 0.799999 17.9922 0.799999C18.8722 0.799999 19.6322 0.966666 20.2722 1.3C20.9255 1.62 21.4589 2.08667 21.8722 2.7C22.2989 3.31333 22.6122 4.07333 22.8122 4.98C23.0122 5.87333 23.1122 6.88667 23.1122 8.02C23.1122 9.16667 23.0122 10.1867 22.8122 11.08C22.6122 11.9733 22.2989 12.7267 21.8722 13.34C21.4589 13.9533 20.9255 14.4267 20.2722 14.76C19.6322 15.08 18.8722 15.24 17.9922 15.24ZM17.9922 13.38C18.9922 13.38 19.6989 13.0067 20.1122 12.26C20.5255 11.5 20.7322 10.4733 20.7322 9.18V6.84C20.7322 5.56 20.5255 4.54667 20.1122 3.8C19.6989 3.04 18.9922 2.66 17.9922 2.66C16.9922 2.66 16.2855 3.04 15.8722 3.8C15.4589 4.54667 15.2522 5.56 15.2522 6.84V9.2C15.2522 10.48 15.4589 11.5 15.8722 12.26C16.2855 13.0067 16.9922 13.38 17.9922 13.38ZM28.8844 15H26.6644V1.04H31.8844C33.2177 1.04 34.231 1.41333 34.9244 2.16C35.631 2.90667 35.9844 3.93333 35.9844 5.24C35.9844 6.30667 35.7244 7.18667 35.2044 7.88C34.6844 8.57333 33.9377 9 32.9644 9.16L36.1844 15H33.7044L30.7444 9.36H28.8844V15ZM31.5644 7.56C32.951 7.56 33.6444 6.92667 33.6444 5.66V4.8C33.6444 3.53333 32.951 2.9 31.5644 2.9H28.8844V7.56H31.5644ZM43.9766 15.24C43.0966 15.24 42.3299 15.08 41.6766 14.76C41.0366 14.4267 40.5032 13.9533 40.0766 13.34C39.6632 12.7267 39.3566 11.9733 39.1566 11.08C38.9566 10.1867 38.8566 9.16667 38.8566 8.02C38.8566 6.88667 38.9566 5.87333 39.1566 4.98C39.3566 4.07333 39.6632 3.31333 40.0766 2.7C40.5032 2.08667 41.0366 1.62 41.6766 1.3C42.3299 0.966666 43.0966 0.799999 43.9766 0.799999C44.8566 0.799999 45.6166 0.966666 46.2566 1.3C46.9099 1.62 47.4432 2.08667 47.8566 2.7C48.2832 3.31333 48.5966 4.07333 48.7966 4.98C48.9966 5.87333 49.0966 6.88667 49.0966 8.02C49.0966 9.16667 48.9966 10.1867 48.7966 11.08C48.5966 11.9733 48.2832 12.7267 47.8566 13.34C47.4432 13.9533 46.9099 14.4267 46.2566 14.76C45.6166 15.08 44.8566 15.24 43.9766 15.24ZM43.9766 13.38C44.9766 13.38 45.6832 13.0067 46.0966 12.26C46.5099 11.5 46.7166 10.4733 46.7166 9.18V6.84C46.7166 5.56 46.5099 4.54667 46.0966 3.8C45.6832 3.04 44.9766 2.66 43.9766 2.66C42.9766 2.66 42.2699 3.04 41.8566 3.8C41.4432 4.54667 41.2366 5.56 41.2366 6.84V9.2C41.2366 10.48 41.4432 11.5 41.8566 12.26C42.2699 13.0067 42.9766 13.38 43.9766 13.38ZM59.8688 8.32L59.9288 4.12H59.7688L56.9688 11.3L54.1688 4.12H54.0088L54.0688 8.32V15H52.0888V1.04H54.8288L56.9688 6.58H57.1088L59.2688 1.04H61.8488V15H59.8688V8.32Z" fill="white"/>
</svg>
